<svg xmlns="http://www.w3.org/2000/svg" width="148.621" height="50.837" viewBox="0 0 148.621 50.837">
  <g id="logo" transform="translate(-79.1 -482.643)">
    <path id="패스_12" data-name="패스 12" d="M24.66-38.7a22.305,22.305,0,0,1,8.37,1.32A11,11,0,0,1,38.1-33.3a15.409,15.409,0,0,1,1.86,4.2,19.956,19.956,0,0,1,.66,5.4,29.46,29.46,0,0,1-.48,5.28,31.993,31.993,0,0,1-1.35,5.07,27.9,27.9,0,0,1-2.1,4.56,20.8,20.8,0,0,1-2.73,3.75A15.391,15.391,0,0,1,27.45-.75,29.032,29.032,0,0,1,18.36.48,26.775,26.775,0,0,1,9.96-.6,10.437,10.437,0,0,1,4.92-4.08,12.45,12.45,0,0,1,2.85-8.34a23.63,23.63,0,0,1-.75-6.48A28.648,28.648,0,0,1,4.47-26.73a19.847,19.847,0,0,1,6.75-8.31A18.908,18.908,0,0,1,17.1-37.8,28.39,28.39,0,0,1,24.66-38.7ZM17.88-3.72a3.67,3.67,0,0,0,2.61-1.23,12.869,12.869,0,0,0,2.28-3.3,33.855,33.855,0,0,0,1.92-4.71,52.02,52.02,0,0,0,1.47-5.46q.6-2.82.93-5.61a43.5,43.5,0,0,0,.33-5.07,10.027,10.027,0,0,0-.63-4.29,1.984,1.984,0,0,0-1.83-1.17,3.809,3.809,0,0,0-2.64,1.2,13.238,13.238,0,0,0-2.37,3.21,27.645,27.645,0,0,0-1.98,4.62q-.87,2.61-1.5,5.37a53.932,53.932,0,0,0-.96,5.46,41.265,41.265,0,0,0-.33,4.98,10.262,10.262,0,0,0,.75,4.71A2.221,2.221,0,0,0,17.88-3.72ZM75.24-33.54H65.58L58.44,0H45.48l7.14-33.54H43.08l1.08-4.56h32.1ZM80.1-38.1h25.26l-.96,4.56H92.16L89.64-21.96H99.9l-.96,4.5H88.68L85.92-4.62H98.16L97.26,0H72Z" transform="translate(77 533)" fill="#fff"/>
    <path id="패스_13" data-name="패스 13" d="M32.75-38.5l6.75.583L25.417-21l-10.25,8.167L5.16,0h-7.2L12.12-17.34,23-26Z" transform="translate(179 533)" fill="#1c2799"/>
    <path id="패스_11" data-name="패스 11" d="M23.22-26.1h0L25.38-21h0L34.32,0H19.5L14.4-11.94h0l-2.28-5.4h0L3.3-38.1H18.12Z" transform="translate(179 533)" fill="#fff"/>
    <path id="패스_14" data-name="패스 14" d="M5.933-3.261,14.24,8.173-4.316,7.132Z" transform="matrix(0.809, 0.588, -0.588, 0.809, 214.283, 487.818)" fill="#1c2799"/>
  </g>
</svg>
